<svg width="1200" height="630" viewBox="0 0 1200 630" fill="none" xmlns="http://www.w3.org/2000/svg">
  <!-- Background -->
  <rect width="1200" height="630" fill="#0f0e0c"/>
  
  <!-- Subtle grid pattern -->
  <defs>
    <pattern id="grid" width="40" height="40" patternUnits="userSpaceOnUse">
      <path d="M 40 0 L 0 0 0 40" fill="none" stroke="#1f1d19" stroke-width="1"/>
    </pattern>
    <linearGradient id="tealGradient" x1="0%" y1="0%" x2="100%" y2="100%">
      <stop offset="0%" style="stop-color:#20a1a1;stop-opacity:1" />
      <stop offset="100%" style="stop-color:#3dbdbd;stop-opacity:1" />
    </linearGradient>
    <linearGradient id="fadeGradient" x1="0%" y1="0%" x2="100%" y2="0%">
      <stop offset="0%" style="stop-color:#0f0e0c;stop-opacity:0" />
      <stop offset="50%" style="stop-color:#0f0e0c;stop-opacity:0" />
      <stop offset="100%" style="stop-color:#0f0e0c;stop-opacity:1" />
    </linearGradient>
  </defs>
  <rect width="1200" height="630" fill="url(#grid)" opacity="0.5"/>
  
  <!-- Accent glow -->
  <ellipse cx="900" cy="315" rx="400" ry="300" fill="#20a1a1" opacity="0.08"/>
  
  <!-- Logo icon (larger) -->
  <g transform="translate(100, 180)">
    <rect x="0" y="0" width="100" height="100" rx="12" stroke="#20a1a1" stroke-width="4" fill="none"/>
    <circle cx="28" cy="28" r="7" fill="#3dbdbd"/>
    <circle cx="28" cy="50" r="7" fill="#3dbdbd"/>
    <circle cx="28" cy="72" r="7" fill="#3dbdbd"/>
    <line x1="42" y1="28" x2="85" y2="28" stroke="#6b645a" stroke-width="4" stroke-linecap="round"/>
    <line x1="42" y1="50" x2="70" y2="50" stroke="#6b645a" stroke-width="4" stroke-linecap="round"/>
    <line x1="42" y1="72" x2="78" y2="72" stroke="#6b645a" stroke-width="4" stroke-linecap="round"/>
  </g>
  
  <!-- Title -->
  <text x="230" y="260" font-family="system-ui, -apple-system, 'Segoe UI', Roboto, monospace" font-size="72" font-weight="700" fill="#e8e6e1">repobase</text>
  
  <!-- Tagline -->
  <text x="100" y="340" font-family="system-ui, -apple-system, 'Segoe UI', Roboto, monospace" font-size="32" fill="#8c867c">Your code, indexed locally</text>
  <text x="100" y="390" font-family="system-ui, -apple-system, 'Segoe UI', Roboto, monospace" font-size="40" font-weight="600" fill="url(#tealGradient)">ready for AI</text>
  
  <!-- Feature pills -->
  <g transform="translate(100, 450)">
    <rect x="0" y="0" width="180" height="44" rx="22" fill="#181714" stroke="#353128" stroke-width="2"/>
    <text x="90" y="28" font-family="system-ui, monospace" font-size="16" fill="#b8b3a9" text-anchor="middle">Semantic Search</text>
    
    <rect x="200" y="0" width="180" height="44" rx="22" fill="#181714" stroke="#353128" stroke-width="2"/>
    <text x="290" y="28" font-family="system-ui, monospace" font-size="16" fill="#b8b3a9" text-anchor="middle">MCP Integration</text>
    
    <rect x="400" y="0" width="150" height="44" rx="22" fill="#181714" stroke="#353128" stroke-width="2"/>
    <text x="475" y="28" font-family="system-ui, monospace" font-size="16" fill="#b8b3a9" text-anchor="middle">100% Local</text>
  </g>
  
  <!-- Terminal preview (right side) -->
  <g transform="translate(700, 140)">
    <rect x="0" y="0" width="420" height="350" rx="12" fill="#181714" stroke="#353128" stroke-width="2"/>
    <!-- Terminal header -->
    <rect x="0" y="0" width="420" height="36" rx="12" fill="#1f1d19"/>
    <rect x="0" y="24" width="420" height="12" fill="#1f1d19"/>
    <circle cx="20" cy="18" r="6" fill="#db4f4f"/>
    <circle cx="40" cy="18" r="6" fill="#c99428"/>
    <circle cx="60" cy="18" r="6" fill="#4fb36a"/>
    <text x="210" y="22" font-family="monospace" font-size="11" fill="#6b645a" text-anchor="middle">repobase</text>
    
    <!-- Terminal content -->
    <text x="20" y="70" font-family="monospace" font-size="14" fill="#20a1a1">Repositories (6)</text>
    <text x="20" y="100" font-family="monospace" font-size="13" fill="#3dbdbd">›</text>
    <text x="35" y="100" font-family="monospace" font-size="13" fill="#e8e6e1">Effect-TS-effect</text>
    <text x="200" y="100" font-family="monospace" font-size="11" fill="#6b645a">main</text>
    <text x="280" y="100" font-family="monospace" font-size="11" fill="#4fb36a">+ synced</text>
    
    <text x="35" y="125" font-family="monospace" font-size="13" fill="#8c867c">vercel-ai-chatbot</text>
    <text x="200" y="125" font-family="monospace" font-size="11" fill="#6b645a">main</text>
    <text x="280" y="125" font-family="monospace" font-size="11" fill="#4fb36a">+ synced</text>
    
    <text x="35" y="150" font-family="monospace" font-size="13" fill="#8c867c">sst-opencode</text>
    <text x="200" y="150" font-family="monospace" font-size="11" fill="#6b645a">main</text>
    <text x="280" y="150" font-family="monospace" font-size="11" fill="#4fb36a">+ synced</text>
    
    <text x="35" y="175" font-family="monospace" font-size="13" fill="#8c867c">tryfabric-mack</text>
    <text x="200" y="175" font-family="monospace" font-size="11" fill="#6b645a">main</text>
    <text x="280" y="175" font-family="monospace" font-size="11" fill="#4fb36a">+ synced</text>
    
    <!-- Status bar hint -->
    <rect x="0" y="314" width="420" height="36" rx="0" fill="#1f1d19"/>
    <rect x="0" y="314" width="420" height="2" fill="#353128"/>
    <text x="20" y="336" font-family="monospace" font-size="10" fill="#6b645a">[a] Add  [/] Search  [c] Copy MCP Config</text>
  </g>
  
  <!-- Bottom accent line -->
  <rect x="0" y="620" width="1200" height="10" fill="url(#tealGradient)"/>
</svg>

